# xmcd CD database file generated by Grip 3.2.0
# 
# Track frame offsets:
#       150
#       11132
#       28931
#       44708
#       61148
#       74237
#       93914
#       111861
#       126046
#       147850
#       168072
#       184677
#       203804
#       214508
# 
# Disc length: 3132 seconds
# 
# Revision: 5
# Processed by: cddbd v1.5.2PL0 Copyright (c) Steve Scherf et al.
# Submitted via: Grip 3.2.0
# 
DISCID=cc0c3a0e
DTITLE=Garth Brooks - Ropin' The Wind
DYEAR=1991
DGENRE=Country
TTITLE0=Against The Grain
TTITLE1=Rodeo
TTITLE2=What She's Doing Now
TTITLE3=Burning Bridges
TTITLE4=Papa Loved Mama
TTITLE5=Shameless
TTITLE6=Cold Shoulder
TTITLE7=We Bury The Hatchett
TTITLE8=In Lonesome Dove
TTITLE9=The River
TTITLE10=Alabama Clay
TTITLE11=Everytime That It Rains
TTITLE12=Nobody Gets Off In This Town
TTITLE13=Cowboy Bill
EXTD=
EXTT0=
EXTT1=
EXTT2=
EXTT3=
EXTT4=
EXTT5=
EXTT6=
EXTT7=
EXTT8=
EXTT9=
EXTT10=
EXTT11=
EXTT12=
EXTT13=
PLAYORDER=
